<svg width="216" height="361" viewBox="0 0 216 361" fill="none" xmlns="http://www.w3.org/2000/svg">
<g clip-path="url(#clip0_2749_2595)">
<path d="M96.951 10.2452L54.6374 90.3311C95.9879 111.941 135.248 137.333 171.915 166.181C140.424 149.616 107.26 136.448 72.9821 126.9L40.765 211.095C64.8691 223.187 87.0362 238.802 106.536 257.427C91.7171 249.932 76.4552 243.346 60.835 237.708L31.6291 323.436L46.2813 280.584L31.5059 323.301C32.7594 323.614 155.752 367.328 222.516 471.452L305.033 438.474C299.475 413.228 291.83 388.487 282.177 364.505C327.671 412.384 353.488 452.278 354.054 453.15L437.502 425.441C436.757 415.338 414.77 178.113 96.951 10.2452Z" fill="#143089"/>
</g>
<defs>
<clipPath id="clip0_2749_2595">
<rect width="480" height="480" fill="white"/>
</clipPath>
</defs>
</svg>
