<svg width="105" height="27" viewBox="0 0 105 27" fill="none" xmlns="http://www.w3.org/2000/svg">
<path d="M59.6967 23.9335H55.1208L49.0264 10.1397H54.7464L57.4087 15.7534L64.5015 0.736572H72.1351L59.6967 23.9335Z" fill="#FB6800"/>
<path d="M37.5239 0.736572V26.4196H30.5352V0.736572H37.5239Z" fill="white"/>
<path d="M72.1359 0.736572V26.4998H65.9375V12.325L72.1359 0.736572Z" fill="white"/>
<path d="M48.9233 10.1397V26.4998H42.7041V0.736572H50.3169L54.7473 10.1397H48.9233Z" fill="white"/>
<path d="M104.5 13.5887C104.511 15.4052 104.137 17.2049 103.4 18.877C102.664 20.5492 101.581 22.0587 100.217 23.3129C98.8538 24.567 97.2389 25.5394 95.4716 26.1702C93.7042 26.8011 91.8218 27.0772 89.9398 26.9815C88.0621 27.0739 86.1845 26.7962 84.4219 26.1655C82.6593 25.5349 81.0485 24.5645 79.6881 23.3136C78.3276 22.0627 77.246 20.5576 76.5093 18.8902C75.7726 17.2228 75.3963 15.4282 75.4034 13.6159C75.4105 11.8036 75.8008 10.0118 76.5505 8.3498C77.3002 6.68782 78.3935 5.19061 79.7637 3.94963C81.1339 2.70865 82.7522 1.74995 84.5197 1.13211C86.2872 0.514263 88.1668 0.250241 90.0438 0.35617C91.9054 0.266603 93.7666 0.542307 95.5144 1.16657C97.2623 1.79084 98.8604 2.75067 100.212 3.98791C101.564 5.22514 102.641 6.71402 103.378 8.36431C104.115 10.0146 104.496 11.792 104.5 13.5887ZM82.7638 13.5887C82.7417 14.5418 82.9146 15.4899 83.2728 16.3786C83.6309 17.2673 84.1672 18.0793 84.8509 18.7682C85.5347 19.4571 86.3526 20.0094 87.2579 20.3935C88.1632 20.7776 89.1381 20.986 90.127 21.0069C91.1076 20.9838 92.0736 20.7725 92.9686 20.3855C93.8637 19.9985 94.6697 19.4435 95.3397 18.7529C96.0097 18.0623 96.5302 17.2499 96.8709 16.3632C97.2115 15.4766 97.3655 14.5333 97.3237 13.5887C97.3458 12.6585 97.1769 11.7333 96.8266 10.8664C96.4763 9.99937 95.9517 9.20771 95.2828 8.53691C94.614 7.8661 93.8141 7.3294 92.9293 6.95768C92.0444 6.58596 91.0921 6.38655 90.127 6.37094C89.1491 6.38141 88.1829 6.57746 87.2836 6.94787C86.3843 7.31829 85.5696 7.85583 84.8858 8.52979C84.2021 9.20376 83.6627 10.0009 83.2986 10.8758C82.9345 11.7507 82.7528 12.6862 82.7638 13.6288V13.5887Z" fill="white"/>
<path d="M19.9068 13.3283H25.9388V23.6336C22.6168 25.7251 18.7566 26.8844 14.79 26.9818C12.9308 27.0524 11.0759 26.7585 9.33795 26.1179C7.59996 25.4773 6.01496 24.5032 4.67897 23.2548C3.34297 22.0064 2.28377 20.5096 1.56553 18.855C0.847294 17.2004 0.48496 15.4225 0.500478 13.629C0.500478 6.03038 6.74046 0.356446 15.2476 0.356446C19.2677 0.355168 23.1584 1.72601 26.23 4.22595L22.278 9.01771C20.3772 7.25041 17.8661 6.22224 15.2268 6.13062C14.2141 6.12458 13.2106 6.31608 12.2766 6.69359C11.3426 7.0711 10.4976 7.62682 9.79221 8.32733C9.08685 9.02783 8.5358 9.85863 8.1722 10.7697C7.8086 11.6809 7.63997 12.6535 7.67646 13.629C7.63989 14.6116 7.81023 15.5911 8.1772 16.5084C8.54417 17.4257 9.10015 18.2619 9.8116 18.9664C10.523 19.6709 11.3752 20.2291 12.3167 20.6075C13.2581 20.9858 14.2693 21.1763 15.2892 21.1675C16.9038 21.0969 18.4815 20.679 19.9068 19.9445V13.3283Z" fill="white"/>
</svg>
