<svg width="200" height="55" viewBox="0 0 200 55" fill="none" xmlns="http://www.w3.org/2000/svg">
<path d="M113.841 48.2483H105.076L93.4033 20.6055H104.359L109.459 31.8555L123.044 1.76172H137.666L113.841 48.2483Z" fill="#FB6800"/>
<path d="M71.3735 1.76172V53.2304H57.9873V1.76172H71.3735Z" fill="white"/>
<path d="M137.668 1.76172V53.3912H125.796V24.9849L137.668 1.76172Z" fill="white"/>
<path d="M93.2071 20.6055V53.3912H81.2949V1.76172H95.8764L104.362 20.6055H93.2071Z" fill="white"/>
<path d="M199.657 27.5171C199.678 31.1576 198.961 34.764 197.551 38.115C196.14 41.4661 194.066 44.4911 191.454 47.0044C188.843 49.5177 185.749 51.4663 182.364 52.7305C178.979 53.9948 175.374 54.5481 171.769 54.3564C168.172 54.5414 164.576 53.985 161.2 52.7211C157.824 51.4573 154.739 49.5126 152.133 47.0058C149.527 44.499 147.455 41.4828 146.044 38.1414C144.633 34.8 143.912 31.2035 143.926 27.5718C143.94 23.94 144.687 20.3491 146.123 17.0185C147.559 13.6879 149.653 10.6875 152.278 8.20057C154.902 5.71365 158.002 3.79243 161.387 2.55427C164.773 1.31611 168.373 0.787015 171.968 0.999295C175.534 0.819804 179.099 1.37231 182.446 2.62334C185.794 3.87437 188.855 5.79787 191.444 8.27728C194.033 10.7567 196.096 13.7404 197.508 17.0476C198.919 20.3548 199.65 23.9166 199.657 27.5171ZM158.024 27.5171C157.982 29.4273 158.313 31.3271 158.999 33.1081C159.685 34.8891 160.712 36.5164 162.022 37.8969C163.331 39.2775 164.898 40.3842 166.632 41.154C168.366 41.9238 170.233 42.3415 172.127 42.3832C174.006 42.3369 175.856 41.9136 177.57 41.138C179.285 40.3625 180.828 39.2503 182.112 37.8663C183.395 36.4823 184.392 34.8543 185.044 33.0774C185.697 31.3005 185.992 29.4103 185.912 27.5171C185.954 25.6531 185.631 23.7991 184.96 22.0616C184.289 20.3242 183.284 18.7377 182.003 17.3934C180.722 16.0492 179.19 14.9736 177.495 14.2287C175.8 13.4838 173.976 13.0842 172.127 13.0529C170.254 13.0738 168.404 13.4667 166.681 14.209C164.959 14.9514 163.398 16.0286 162.088 17.3792C160.779 18.7298 159.746 20.3274 159.048 22.0806C158.351 23.8339 158.003 25.7085 158.024 27.5975V27.5171Z" fill="white"/>
<path d="M37.6286 26.9955H49.1822V47.6473C42.8194 51.8387 35.4255 54.162 27.828 54.3571C24.2667 54.4986 20.7141 53.9096 17.3851 52.6258C14.0562 51.342 11.0203 49.39 8.46137 46.8882C5.90242 44.3864 3.87365 41.3868 2.49794 38.071C1.12223 34.7553 0.428225 31.1924 0.457947 27.5982C0.457947 12.3705 12.4099 1 28.7045 1C36.4045 0.99744 43.8567 3.7446 49.74 8.75446L42.1704 18.3571C38.5296 14.8155 33.7199 12.755 28.6647 12.5714C26.7249 12.5593 24.8027 12.9431 23.0138 13.6996C21.2249 14.4561 19.6063 15.5698 18.2552 16.9736C16.9042 18.3774 15.8487 20.0423 15.1523 21.8682C14.4558 23.6941 14.1328 25.6432 14.2027 27.5982C14.1327 29.5672 14.459 31.5301 15.1618 33.3684C15.8647 35.2067 16.9297 36.8824 18.2924 38.2942C19.6551 39.706 21.2873 40.8248 23.0905 41.5829C24.8937 42.3411 26.8306 42.7229 28.7842 42.7053C31.8767 42.5637 34.8986 41.7263 37.6286 40.2544V26.9955Z" fill="white"/>
</svg>
