<svg width="140" height="36" viewBox="0 0 140 36" fill="none" xmlns="http://www.w3.org/2000/svg">
<path d="M79.6872 31.9112H73.5272L65.3232 13.5194H73.0232L76.6072 21.0044L86.1552 0.981934H96.4312L79.6872 31.9112Z" fill="#F37028"/>
<path d="M49.8406 0.981934V35.226H40.4326V0.981934H49.8406Z" fill="white"/>
<path d="M96.4328 0.981934V35.333H88.0889V16.4332L96.4328 0.981934Z" fill="white"/>
<path d="M65.1855 13.5194V35.333H56.8135V0.981934H67.0615L73.0254 13.5194H65.1855Z" fill="white"/>
<path d="M139.999 18.1181C140.014 20.5402 139.511 22.9396 138.519 25.1692C137.528 27.3988 136.07 29.4115 134.234 31.0837C132.399 32.7559 130.225 34.0523 127.846 34.8935C125.467 35.7346 122.933 36.1028 120.399 35.9752C117.872 36.0983 115.344 35.7281 112.971 34.8872C110.599 34.0463 108.43 32.7525 106.599 31.0846C104.768 29.4168 103.312 27.4099 102.32 25.1868C101.328 22.9636 100.822 20.5708 100.831 18.1544C100.841 15.738 101.366 13.3489 102.375 11.1329C103.385 8.91693 104.856 6.92065 106.701 5.26601C108.545 3.61137 110.724 2.33311 113.103 1.50931C115.482 0.685522 118.013 0.333492 120.539 0.47473C123.045 0.355308 125.551 0.722913 127.904 1.55527C130.257 2.38763 132.408 3.6674 134.227 5.31705C136.047 6.9667 137.497 8.95186 138.489 11.1523C139.481 13.3526 139.995 15.7224 139.999 18.1181ZM110.739 18.1181C110.71 19.3889 110.942 20.653 111.425 21.838C111.907 23.0229 112.629 24.1056 113.549 25.0241C114.469 25.9426 115.57 26.679 116.789 27.1912C118.008 27.7033 119.32 27.9812 120.651 28.009C121.971 27.9782 123.272 27.6966 124.477 27.1806C125.682 26.6646 126.767 25.9245 127.668 25.0037C128.57 24.0829 129.271 22.9997 129.73 21.8175C130.188 20.6353 130.396 19.3776 130.339 18.1181C130.369 16.8779 130.142 15.6443 129.67 14.4883C129.199 13.3323 128.492 12.2768 127.592 11.3824C126.692 10.488 125.615 9.77238 124.424 9.27675C123.233 8.78112 121.951 8.51524 120.651 8.49442C119.335 8.50839 118.034 8.76978 116.824 9.26367C115.613 9.75756 114.516 10.4743 113.596 11.3729C112.676 12.2715 111.95 13.3344 111.459 14.5009C110.969 15.6675 110.725 16.9147 110.739 18.1715V18.1181Z" fill="white"/>
<path d="M26.1246 17.7709H34.2446V31.5113C29.7727 34.3 24.5762 35.8458 19.2366 35.9756C16.7337 36.0697 14.2368 35.6779 11.8972 34.8237C9.55764 33.9695 7.42399 32.6708 5.62553 31.0063C3.82707 29.3417 2.40123 27.3459 1.43437 25.1398C0.467512 22.9337 -0.0202455 20.5632 0.000643668 18.1719C0.000643668 8.04034 8.40062 0.475099 19.8526 0.475099C25.2642 0.473394 30.5017 2.30118 34.6366 5.63443L29.3166 12.0235C26.7578 9.66705 23.3774 8.29616 19.8246 8.174C18.4613 8.16594 17.1104 8.42127 15.8531 8.92462C14.5959 9.42797 13.4583 10.1689 12.5087 11.1029C11.5592 12.0369 10.8174 13.1447 10.328 14.3595C9.8385 15.5743 9.6115 16.8711 9.66062 18.1719C9.61139 19.4819 9.8407 20.7879 10.3347 22.011C10.8287 23.2341 11.5771 24.349 12.5348 25.2883C13.4926 26.2277 14.6397 26.972 15.907 27.4764C17.1744 27.9809 18.5356 28.2349 19.9086 28.2232C22.082 28.129 24.2059 27.5719 26.1246 26.5926V17.7709Z" fill="white"/>
</svg>
